<svg version="1.1" xmlns="http://www.w3.org/2000/svg" style="display: block;" viewBox="0 0 2048 2048" width="1024" height="1024" preserveAspectRatio="none">
<defs>
	<linearGradient id="Gradient1" gradientUnits="userSpaceOnUse" x1="175.484" y1="951.951" x2="503.502" y2="21.1088">
		<stop class="stop0" offset="0" stop-opacity="1" stop-color="rgb(23,51,112)"/>
		<stop class="stop1" offset="1" stop-opacity="1" stop-color="rgb(38,76,168)"/>
	</linearGradient>
</defs>
<path transform="translate(0,0)" fill="rgb(17,130,125)" d="M 205.642 966.989 C 130.031 878.281 52.3609 778.904 18.2156 665.593 C 1.54036 610.256 -0.877392 535.324 29.4518 484.479 C 93.4217 377.238 186.449 289.051 278.908 206.466 C 311.296 177.54 344.811 145.293 381.045 121.865 C 409.045 104.057 439.458 90.3671 471.354 81.2138 C 582.048 49.3478 687.926 72.7055 787.097 127.353 C 844.374 157.781 907.142 201.287 958.923 241.481 C 979.551 257.425 1003.83 278.014 1024.13 292.841 L 1026.51 291.282 C 1030.26 300.718 1083.42 342.362 1095.47 352.663 C 1166.29 413.037 1235.75 474.983 1303.8 538.453 C 1313.29 547.144 1359.28 592.244 1366.76 595.642 C 1367.46 595.96 1368.18 596.241 1368.9 596.523 L 1367.55 597.324 C 1381.06 612.634 1412.43 638.834 1428.97 655.269 C 1446.61 672.18 1467.81 691.162 1484.61 708.208 C 1559.13 779.306 1632.23 851.878 1703.87 925.882 C 1723.94 946.705 1743.71 967.814 1763.17 989.203 C 1769.14 995.797 1788.09 1018.1 1793.69 1023.02 L 1794.03 1023.77 C 1746.6 1081.42 1692.41 1135.6 1639.4 1188.02 C 1625.72 1201.55 1612.22 1215.07 1598.09 1228.15 L 1523.43 1296.59 C 1510.06 1308.68 1494.17 1321.8 1481.87 1334.38 L 1481.3 1334.14 C 1459.81 1353.78 1438.52 1373.64 1417.42 1393.7 C 1399.9 1409.95 1379.51 1428.14 1362.57 1444.62 C 1353.62 1454.36 1336.09 1469.19 1325.47 1478.72 L 1258.73 1538.71 C 1204.14 1588.23 1148.7 1636.8 1092.43 1684.41 C 1071.15 1702.53 1046.31 1724.76 1024.86 1741.78 L 1021.47 1743.4 C 1004.85 1730.66 988.259 1715.78 971.918 1702.47 C 903.962 1647.12 841.751 1587.11 777.26 1528.06 C 757.249 1509.91 737.356 1491.64 717.583 1473.24 C 711.066 1467.29 691.708 1450.39 686.929 1444.37 L 685.909 1444.67 C 662.875 1423.77 640.511 1401.64 617.431 1380.58 C 601.549 1365.23 582.894 1348.82 567.759 1333.36 L 563.6 1337.44 C 556.948 1328.92 539.908 1314.02 531.372 1306.12 C 513.546 1289.65 495.808 1273.07 478.157 1256.41 C 413.917 1196.09 352.01 1133.33 292.573 1068.27 C 285.248 1060.32 257.175 1031.1 254.715 1023.01 L 254.347 1022.99 C 251.563 1018.69 241.774 1008.06 237.93 1003.72 C 227.056 991.575 216.293 979.33 205.642 966.989 z M 512.358 648.102 C 528.746 669.056 546.22 688.336 562.614 708.815 L 563.14 708.745 C 570.625 703.064 594.433 678.925 602.211 671.426 L 679.42 597.97 C 673.258 590.684 626.802 558.715 616.423 551.453 C 600.66 541.888 583.062 529.205 567.053 518.99 C 540.216 501.903 512.71 485.889 484.601 470.988 C 452.569 454.679 418.615 438.051 384.798 425.96 C 406.168 501.696 461.463 587.847 512.358 648.102 z"/>
<path transform="translate(0,0)" fill="url(#Gradient1)" d="M 205.642 966.989 C 130.031 878.281 52.3609 778.904 18.2156 665.593 C 1.54036 610.256 -0.877392 535.324 29.4518 484.479 C 93.4217 377.238 186.449 289.051 278.908 206.466 C 311.296 177.54 344.811 145.293 381.045 121.865 C 409.045 104.057 439.458 90.3671 471.354 81.2138 C 582.048 49.3478 687.926 72.7055 787.097 127.353 C 776.57 128.82 750.681 156.067 741.668 164.938 C 668.405 236.687 600.417 313.63 538.233 395.168 C 525.448 412.119 512.932 429.272 500.691 446.62 C 496.655 452.411 487.614 465.093 484.601 470.988 C 452.569 454.679 418.615 438.051 384.798 425.96 C 406.168 501.696 461.463 587.847 512.358 648.102 C 528.746 669.056 546.22 688.336 562.614 708.815 C 526.168 745.307 487.576 781.61 450.724 818.045 C 383.275 884.316 317.907 952.672 254.715 1023.01 L 254.347 1022.99 C 251.563 1018.69 241.774 1008.06 237.93 1003.72 C 227.056 991.575 216.293 979.33 205.642 966.989 z"/>
<path transform="translate(0,0)" fill="rgb(19,40,93)" d="M 512.358 648.102 C 528.746 669.056 546.22 688.336 562.614 708.815 C 526.168 745.307 487.576 781.61 450.724 818.045 C 383.275 884.316 317.907 952.672 254.715 1023.01 L 254.347 1022.99 C 251.563 1018.69 241.774 1008.06 237.93 1003.72 C 227.056 991.575 216.293 979.33 205.642 966.989 C 209.611 958.941 237.207 929.113 244.849 920.425 C 301.647 856.951 361.167 795.968 423.242 737.645 C 439.526 721.921 456.068 706.466 472.861 691.288 C 484.878 680.471 497.706 669.543 509.015 658 C 512.58 654.362 511.788 653.398 512.358 648.102 z"/>
<path transform="translate(0,0)" fill="rgb(18,172,127)" d="M 1024.98 890.399 C 1055.82 859.666 1089.31 830.288 1121.78 801.2 C 1200.57 729.551 1282.58 661.522 1367.55 597.324 C 1381.06 612.634 1412.43 638.834 1428.97 655.269 C 1446.61 672.18 1467.81 691.162 1484.61 708.208 C 1559.13 779.306 1632.23 851.878 1703.87 925.882 C 1723.94 946.705 1743.71 967.814 1763.17 989.203 C 1769.14 995.797 1788.09 1018.1 1793.69 1023.02 L 1794.03 1023.77 C 1746.6 1081.42 1692.41 1135.6 1639.4 1188.02 C 1625.72 1201.55 1612.22 1215.07 1598.09 1228.15 L 1523.43 1296.59 C 1510.06 1308.68 1494.17 1321.8 1481.87 1334.38 L 1481.3 1334.14 C 1459.81 1353.78 1438.52 1373.64 1417.42 1393.7 C 1402.72 1376.07 1375.35 1350.72 1358.64 1333.71 C 1290.37 1264.24 1218.12 1198.17 1147.3 1131.34 C 1131.6 1116.53 1114.83 1102.47 1099.45 1087.79 C 1121.34 1066.76 1143.43 1045.93 1165.7 1025.31 C 1141.8 1000.73 1112.39 974.257 1087.38 950.063 C 1068.16 933.535 1043.74 908.873 1024.95 890.804 L 1024.98 890.399 z"/>
<path transform="translate(0,0)" fill="rgb(15,92,73)" d="M 1165.7 1025.31 C 1172.94 1033.51 1183.1 1041.84 1191.28 1049.47 C 1206.83 1064.1 1222.25 1078.85 1237.55 1093.74 C 1292.35 1146.59 1346.84 1199.78 1401 1253.29 C 1426.49 1278.48 1457.34 1307.74 1481.3 1334.14 C 1459.81 1353.78 1438.52 1373.64 1417.42 1393.7 C 1402.72 1376.07 1375.35 1350.72 1358.64 1333.71 C 1290.37 1264.24 1218.12 1198.17 1147.3 1131.34 C 1131.6 1116.53 1114.83 1102.47 1099.45 1087.79 C 1121.34 1066.76 1143.43 1045.93 1165.7 1025.31 z"/>
<path transform="translate(0,0)" fill="rgb(13,92,103)" d="M 1024.98 890.399 C 1055.82 859.666 1089.31 830.288 1121.78 801.2 C 1200.57 729.551 1282.58 661.522 1367.55 597.324 C 1381.06 612.634 1412.43 638.834 1428.97 655.269 C 1388.83 687.447 1347.94 717.623 1307.54 750.496 C 1230.68 813.085 1157.19 879.701 1087.38 950.063 C 1068.16 933.535 1043.74 908.873 1024.95 890.804 L 1024.98 890.399 z"/>
<path transform="translate(0,0)" fill="rgb(23,140,91)" d="M 882.339 1025.27 L 882.853 1025.04 C 904.815 1046.1 929.396 1070.45 951.931 1090.48 C 975.143 1112.49 1000.47 1137.01 1024.52 1157.89 C 1049.36 1134.38 1074.34 1111.01 1099.45 1087.79 C 1114.83 1102.47 1131.6 1116.53 1147.3 1131.34 C 1218.12 1198.17 1290.37 1264.24 1358.64 1333.71 C 1375.35 1350.72 1402.72 1376.07 1417.42 1393.7 C 1399.9 1409.95 1379.51 1428.14 1362.57 1444.62 C 1353.62 1454.36 1336.09 1469.19 1325.47 1478.72 L 1258.73 1538.71 C 1204.14 1588.23 1148.7 1636.8 1092.43 1684.41 C 1071.15 1702.53 1046.31 1724.76 1024.86 1741.78 L 1021.47 1743.4 C 1004.85 1730.66 988.259 1715.78 971.918 1702.47 C 903.962 1647.12 841.751 1587.11 777.26 1528.06 C 757.249 1509.91 737.356 1491.64 717.583 1473.24 C 711.066 1467.29 691.708 1450.39 686.929 1444.37 L 685.909 1444.67 C 662.875 1423.77 640.511 1401.64 617.431 1380.58 C 601.549 1365.23 582.894 1348.82 567.759 1333.36 C 571.665 1330.41 588.896 1311.97 593.186 1307.55 C 609.922 1290.38 626.846 1273.39 643.956 1256.59 C 722.975 1179.03 802.437 1101.92 882.339 1025.27 z"/>
<path transform="translate(0,0)" fill="rgb(19,40,93)" d="M 882.339 1025.27 L 882.853 1025.04 C 904.815 1046.1 929.396 1070.45 951.931 1090.48 C 975.143 1112.49 1000.47 1137.01 1024.52 1157.89 C 998.733 1179.82 972.454 1204.59 946.929 1227.26 C 902.776 1266.54 858.067 1305.19 812.815 1343.2 C 784.943 1366.67 756.662 1389.65 727.983 1412.13 C 718.906 1419.31 693.979 1437.72 686.929 1444.37 L 685.909 1444.67 C 662.875 1423.77 640.511 1401.64 617.431 1380.58 C 601.549 1365.23 582.894 1348.82 567.759 1333.36 C 571.665 1330.41 588.896 1311.97 593.186 1307.55 C 609.922 1290.38 626.846 1273.39 643.956 1256.59 C 722.975 1179.03 802.437 1101.92 882.339 1025.27 z"/>
<path transform="translate(0,0)" fill="rgb(31,71,139)" d="M 882.339 1025.27 L 882.853 1025.04 C 904.815 1046.1 929.396 1070.45 951.931 1090.48 C 926.11 1117.13 888.971 1149.46 860.815 1174.54 C 811.561 1218.5 761.589 1261.65 710.918 1303.97 C 692.071 1319.53 673.133 1334.98 654.102 1350.31 C 642.608 1359.57 628.062 1370.73 617.431 1380.58 C 601.549 1365.23 582.894 1348.82 567.759 1333.36 C 571.665 1330.41 588.896 1311.97 593.186 1307.55 C 609.922 1290.38 626.846 1273.39 643.956 1256.59 C 722.975 1179.03 802.437 1101.92 882.339 1025.27 z"/>
<path transform="translate(0,0)" fill="rgb(63,136,245)" d="M 562.614 708.815 L 563.14 708.745 C 569.783 714.315 587.391 735.07 594.077 742.458 C 610.779 760.656 627.711 778.642 644.868 796.41 C 697.77 850.836 751.93 904.025 807.304 955.933 C 829.994 977.27 858.734 1005.64 882.339 1025.27 C 802.437 1101.92 722.975 1179.03 643.956 1256.59 C 626.846 1273.39 609.922 1290.38 593.186 1307.55 C 588.896 1311.97 571.665 1330.41 567.759 1333.36 L 563.6 1337.44 C 556.948 1328.92 539.908 1314.02 531.372 1306.12 C 513.546 1289.65 495.808 1273.07 478.157 1256.41 C 413.917 1196.09 352.01 1133.33 292.573 1068.27 C 285.248 1060.32 257.175 1031.1 254.715 1023.01 C 317.907 952.672 383.275 884.316 450.724 818.045 C 487.576 781.61 526.168 745.307 562.614 708.815 z"/>
<path transform="translate(0,0)" fill="rgb(91,165,234)" d="M 679.96 598.137 C 692.649 605.859 709.162 618.774 720.952 627.851 C 740.708 642.758 760.093 658.149 779.091 674.011 C 834.764 719.856 889.286 767.08 942.608 815.639 L 993.481 862.475 C 998.73 867.368 1019.59 887.502 1024.98 890.399 L 1024.95 890.804 C 1043.74 908.873 1068.16 933.535 1087.38 950.063 C 1112.39 974.257 1141.8 1000.73 1165.7 1025.31 C 1143.43 1045.93 1121.34 1066.76 1099.45 1087.79 C 1074.34 1111.01 1049.36 1134.38 1024.52 1157.89 C 1000.47 1137.01 975.143 1112.49 951.931 1090.48 C 929.396 1070.45 904.815 1046.1 882.853 1025.04 L 882.339 1025.27 C 858.734 1005.64 829.994 977.27 807.304 955.933 C 751.93 904.025 697.77 850.836 644.868 796.41 C 627.711 778.642 610.779 760.656 594.077 742.458 C 587.391 735.07 569.783 714.315 563.14 708.745 C 570.625 703.064 594.433 678.925 602.211 671.426 L 679.42 597.97 L 679.96 598.137 z"/>
<path transform="translate(0,0)" fill="rgb(254,254,254)" d="M 882.853 1025.04 C 887.657 1018.24 1021.52 892.309 1024.95 890.804 C 1043.74 908.873 1068.16 933.535 1087.38 950.063 C 1112.39 974.257 1141.8 1000.73 1165.7 1025.31 C 1143.43 1045.93 1121.34 1066.76 1099.45 1087.79 C 1074.34 1111.01 1049.36 1134.38 1024.52 1157.89 C 1000.47 1137.01 975.143 1112.49 951.931 1090.48 C 929.396 1070.45 904.815 1046.1 882.853 1025.04 z"/>
<path transform="translate(0,0)" fill="rgb(45,110,210)" d="M 787.097 127.353 C 844.374 157.781 907.142 201.287 958.923 241.481 C 979.551 257.425 1003.83 278.014 1024.13 292.841 C 987.428 323.184 950.954 353.806 914.714 384.705 C 882.837 412.809 851.15 441.128 819.655 469.66 C 774.323 510.138 723.321 555.762 679.96 598.137 L 679.42 597.97 C 673.258 590.684 626.802 558.715 616.423 551.453 C 600.66 541.888 583.062 529.205 567.053 518.99 C 540.216 501.903 512.71 485.889 484.601 470.988 C 487.614 465.093 496.655 452.411 500.691 446.62 C 512.932 429.272 525.448 412.119 538.233 395.168 C 600.417 313.63 668.405 236.687 741.668 164.938 C 750.681 156.067 776.57 128.82 787.097 127.353 z"/>
<path transform="translate(0,0)" fill="rgb(31,71,139)" d="M 958.923 241.481 C 979.551 257.425 1003.83 278.014 1024.13 292.841 C 987.428 323.184 950.954 353.806 914.714 384.705 C 882.837 412.809 851.15 441.128 819.655 469.66 C 774.323 510.138 723.321 555.762 679.96 598.137 L 679.42 597.97 C 673.258 590.684 626.802 558.715 616.423 551.453 C 684.224 488.477 752.726 426.26 821.916 364.813 L 901.13 294.934 C 911.079 286.276 955.694 250.164 958.923 241.481 z"/>
<path transform="translate(0,0)" fill="rgb(36,194,117)" d="M 1171.67 182.062 C 1194.25 165.103 1225.9 146.605 1250.58 132.919 C 1336.64 85.205 1426.54 56.3835 1525.8 70.4299 C 1570.77 76.4648 1614.15 91.1273 1653.56 113.612 C 1694.18 137.021 1728.86 170.706 1763.78 201.765 C 1841.85 271.197 1915.83 340.834 1978.83 424.773 C 1985.38 433.553 1991.76 442.453 1997.98 451.468 C 1996.22 451.829 1994.08 452.571 1992.61 451.233 C 1917.71 383.431 1814.94 384.865 1722.4 407.358 C 1703.95 411.844 1683.37 419.296 1664.28 425.812 C 1612.57 444.692 1534.37 484.068 1487.66 514.806 C 1447.29 540.889 1407.69 568.14 1368.9 596.523 C 1368.18 596.241 1367.46 595.96 1366.76 595.642 C 1359.28 592.244 1313.29 547.144 1303.8 538.453 C 1235.75 474.983 1166.29 413.037 1095.47 352.663 C 1083.42 342.362 1030.26 300.718 1026.51 291.282 C 1035.12 283.183 1061.81 262.363 1072.03 254.748 C 1102.5 232.037 1139.69 201.585 1171.67 182.062 z"/>
<path transform="translate(0,0)" fill="rgb(18,172,127)" d="M 1026.51 291.282 C 1035.12 283.183 1061.81 262.363 1072.03 254.748 C 1102.5 232.037 1139.69 201.585 1171.67 182.062 C 1176.37 189.196 1230.8 237.193 1241.07 246.775 C 1274.11 277.766 1306.35 309.605 1337.76 342.26 C 1372.87 379.38 1406.87 417.544 1439.7 456.699 C 1446.23 464.433 1483.68 511.783 1487.66 514.806 C 1447.29 540.889 1407.69 568.14 1368.9 596.523 C 1368.18 596.241 1367.46 595.96 1366.76 595.642 C 1359.28 592.244 1313.29 547.144 1303.8 538.453 C 1235.75 474.983 1166.29 413.037 1095.47 352.663 C 1083.42 342.362 1030.26 300.718 1026.51 291.282 z"/>
<path transform="translate(0,0)" fill="rgb(45,110,210)" d="M 254.347 1022.99 L 254.715 1023.01 C 257.175 1031.1 285.248 1060.32 292.573 1068.27 C 352.01 1133.33 413.917 1196.09 478.157 1256.41 C 495.808 1273.07 513.546 1289.65 531.372 1306.12 C 539.908 1314.02 556.948 1328.92 563.6 1337.44 C 500.118 1409.48 443.899 1481.98 400.739 1568.47 C 391.453 1587.08 382.403 1605.62 375.3 1625.19 C 370.981 1638.48 365.269 1651.91 361.455 1665.35 C 338.689 1745.55 331.664 1840.97 385.448 1910.75 C 389.205 1915.63 393.979 1919.59 391.007 1925.74 C 390.077 1925.09 389.151 1924.44 388.229 1923.78 C 342.428 1890.78 292.169 1850.52 248.802 1813.95 C 180.719 1755.88 107.145 1695.29 56.9189 1620.5 C -51.7491 1458.67 70.6962 1251.55 173.441 1120.35 C 189.707 1099.31 206.509 1078.7 223.831 1058.52 C 231.024 1050.13 247.71 1032.37 253.223 1024.6 L 254.347 1022.99 z"/>
<path transform="translate(0,0)" fill="rgb(36,194,117)" d="M 1794.03 1023.77 C 1911.48 1157.75 2094.94 1386.02 2013.04 1581.64 C 1987.77 1642.01 1913.32 1711.51 1863.94 1754.55 C 1816.69 1795.44 1768.21 1834.9 1718.58 1872.87 C 1701.77 1885.91 1684.6 1898.49 1667.11 1910.6 C 1661.78 1914.36 1648.98 1923.73 1643.59 1926.62 C 1643.54 1925.08 1643.67 1923.19 1644.87 1922.03 C 1727.78 1841.58 1711.06 1725.48 1672.98 1625.36 C 1668.49 1610.75 1655.73 1583.81 1648.85 1570.17 C 1616.94 1507.54 1578.28 1448.58 1533.56 1394.35 C 1521.22 1379.17 1508.27 1364.24 1495.18 1349.7 C 1491.3 1345.38 1486.26 1340.44 1482.92 1335.85 L 1481.87 1334.38 C 1494.17 1321.8 1510.06 1308.68 1523.43 1296.59 L 1598.09 1228.15 C 1612.22 1215.07 1625.72 1201.55 1639.4 1188.02 C 1692.41 1135.6 1746.6 1081.42 1794.03 1023.77 z"/>
<path transform="translate(0,0)" fill="rgb(17,130,125)" d="M 686.929 1444.37 C 691.708 1450.39 711.066 1467.29 717.583 1473.24 C 737.356 1491.64 757.249 1509.91 777.26 1528.06 C 841.751 1587.11 903.962 1647.12 971.918 1702.47 C 988.259 1715.78 1004.85 1730.66 1021.47 1743.4 C 894.765 1852.96 697.154 1986.89 521.806 1978.75 C 482.002 1976.9 421.617 1953.09 391.007 1925.74 C 393.979 1919.59 389.205 1915.63 385.448 1910.75 C 331.664 1840.97 338.689 1745.55 361.455 1665.35 C 365.269 1651.91 370.981 1638.48 375.3 1625.19 C 381.549 1624.43 402.822 1616.53 409.726 1613.62 C 495.491 1577.5 576.818 1525.5 651.85 1470.72 C 660.801 1464.19 678.703 1451.69 685.909 1444.67 L 686.929 1444.37 z"/>
<path transform="translate(0,0)" fill="rgb(23,140,91)" d="M 1362.57 1444.62 C 1383.75 1460.96 1416.26 1486.42 1439.13 1500.38 C 1485.61 1534.34 1561.92 1579.67 1613.99 1602.93 C 1625.93 1608.26 1638.07 1613.14 1650.38 1617.56 C 1656.06 1619.57 1668.07 1623.16 1672.98 1625.36 C 1711.06 1725.48 1727.78 1841.58 1644.87 1922.03 C 1643.67 1923.19 1643.54 1925.08 1643.59 1926.62 C 1618.58 1945.38 1573.03 1964.37 1542.7 1968.49 C 1382.97 1990.2 1221.29 1890.04 1098.98 1800.91 C 1076.08 1783.45 1045.82 1761.12 1024.86 1741.78 C 1046.31 1724.76 1071.15 1702.53 1092.43 1684.41 C 1148.7 1636.8 1204.14 1588.23 1258.73 1538.71 L 1325.47 1478.72 C 1336.09 1469.19 1353.62 1454.36 1362.57 1444.62 z"/>
<path transform="translate(0,0)" fill="rgb(15,92,73)" d="M 1362.57 1444.62 C 1383.75 1460.96 1416.26 1486.42 1439.13 1500.38 C 1364.04 1576.59 1285.17 1649 1202.84 1717.33 C 1189.71 1728.19 1101.62 1795.96 1098.98 1800.91 C 1076.08 1783.45 1045.82 1761.12 1024.86 1741.78 C 1046.31 1724.76 1071.15 1702.53 1092.43 1684.41 C 1148.7 1636.8 1204.14 1588.23 1258.73 1538.71 L 1325.47 1478.72 C 1336.09 1469.19 1353.62 1454.36 1362.57 1444.62 z"/>
<path transform="translate(0,0)" fill="rgb(23,140,91)" d="M 1664.28 425.812 C 1683.37 419.296 1703.95 411.844 1722.4 407.358 C 1814.94 384.865 1917.71 383.431 1992.61 451.233 C 1994.08 452.571 1996.22 451.829 1997.98 451.468 C 2023.65 490.112 2042.21 525.168 2042.64 573.167 C 2043.74 696.588 1969.67 806.749 1897.38 900.703 C 1880.09 923.213 1860.48 943.961 1843.93 965.833 C 1829.62 981.503 1806.39 1006.78 1793.69 1023.02 C 1788.09 1018.1 1769.14 995.797 1763.17 989.203 C 1743.71 967.814 1723.94 946.705 1703.87 925.882 C 1632.23 851.878 1559.13 779.306 1484.61 708.208 C 1500.19 692.087 1519.21 668.699 1533.48 650.924 C 1547.32 634.261 1561.58 614.563 1574.15 596.912 C 1613.3 541.926 1644.78 490.566 1664.28 425.812 z"/>
<path transform="translate(0,0)" fill="rgb(15,92,73)" d="M 1484.61 708.208 C 1500.19 692.087 1519.21 668.699 1533.48 650.924 C 1538.43 659.648 1574.58 690.176 1584.39 699.331 C 1617 729.679 1649.24 760.426 1681.09 791.565 C 1737.63 847.503 1791.95 905.638 1843.93 965.833 C 1829.62 981.503 1806.39 1006.78 1793.69 1023.02 C 1788.09 1018.1 1769.14 995.797 1763.17 989.203 C 1743.71 967.814 1723.94 946.705 1703.87 925.882 C 1632.23 851.878 1559.13 779.306 1484.61 708.208 z"/>
</svg>
